<svg xmlns="http://www.w3.org/2000/svg" viewBox="0 0 512 512" width="100%" height="100%">
  <defs>
    <!-- Brand Gradient for the Shadow -->
    <linearGradient id="brand-grad" x1="0%" y1="0%" x2="100%" y2="100%">
      <stop offset="0%" stop-color="#7B3F9E" />   <!-- Morado -->
      <stop offset="50%" stop-color="#C2185B" />  <!-- Rosa -->
      <stop offset="100%" stop-color="#D4500A" /> <!-- Naranja -->
    </linearGradient>
  </defs>

  <!-- Dark Espresso Background (matches index.html body) -->
  <rect width="512" height="512" rx="128" fill="#120A02"/>

  <!-- Centered group containing the logo layers -->
  <g transform="translate(64.5, 46) scale(0.803)">
    
    <!-- 1. COLORFUL SHADOW LAYER (translated slightly down & right) -->
    <g transform="translate(16, 16)">
      <g transform="translate(0,523) scale(0.1,-0.1)">
        <path d="M2951 4865 c-32 -28 -48 -68 -81 -210 -64 -269 -86 -469 -76 -713 l6 -164 -37 6 c-21 3 -59 8 -85 12 -47 6 -48 7 -92 83 -71 123 -129 193 -283 338 -156 148 -232 242 -333 408 -93 154 -147 195 -216 162 -18 -9 -41 -31 -50 -49 -39 -76 -37 -266 6 -479 38 -186 89 -308 208 -498 36 -58 61 -106 56 -108 -32 -11 -145 -86 -226 -150 -51 -41 -145 -110 -209 -153 -154 -104 -156 -106 -247 -312 -34 -75 -24 -66 -377 -333 -302 -228 -349 -282 -349 -400 0 -46 6 -72 27 -113 l27 -52 -40 -108 c-49 -128 -56 -205 -23 -268 36 -70 120 -108 143 -65 8 15 5 33 -11 73 -21 54 -22 85 -3 231 4 33 2 54 -9 70 -14 22 -14 22 23 19 53 -5 76 10 96 65 34 93 60 108 157 92 64 -11 76 -10 105 5 19 10 36 15 39 12 9 -9 -53 -35 -123 -51 -86 -20 -139 -51 -197 -115 -64 -71 -89 -129 -94 -214 -4 -60 -1 -78 19 -116 58 -112 203 -136 396 -65 40 15 59 19 48 10 -11 -8 -55 -29 -98 -45 -68 -26 -90 -30 -181 -30 -88 0 -106 -3 -120 -18 -43 -48 -6 -124 92 -189 90 -61 183 -88 301 -88 84 1 104 5 175 34 127 53 131 54 483 40 l324 -13 19 -24 c32 -41 41 -90 46 -257 8 -246 -15 -619 -53 -858 -9 -54 -13 -109 -10 -122 l6 -25 866 0 c784 0 865 1 871 16 3 9 -4 71 -15 138 -29 166 -30 178 -47 546 -21 483 -26 636 -35 1190 -10 542 -14 584 -70 795 -33 125 -72 224 -133 340 l-43 80 22 85 c79 307 50 621 -90 967 -29 72 -77 175 -107 229 -84 152 -211 336 -248 361 -47 32 -110 31 -150 -2z" fill="url(#brand-grad)" />
      </g>
    </g>

    <!-- 2. SOLID WHITE HEAD LAYER -->
    <g transform="translate(0, 0)">
      <g transform="translate(0,523) scale(0.1,-0.1)">
        <path d="M2951 4865 c-32 -28 -48 -68 -81 -210 -64 -269 -86 -469 -76 -713 l6 -164 -37 6 c-21 3 -59 8 -85 12 -47 6 -48 7 -92 83 -71 123 -129 193 -283 338 -156 148 -232 242 -333 408 -93 154 -147 195 -216 162 -18 -9 -41 -31 -50 -49 -39 -76 -37 -266 6 -479 38 -186 89 -308 208 -498 36 -58 61 -106 56 -108 -32 -11 -145 -86 -226 -150 -51 -41 -145 -110 -209 -153 -154 -104 -156 -106 -247 -312 -34 -75 -24 -66 -377 -333 -302 -228 -349 -282 -349 -400 0 -46 6 -72 27 -113 l27 -52 -40 -108 c-49 -128 -56 -205 -23 -268 36 -70 120 -108 143 -65 8 15 5 33 -11 73 -21 54 -22 85 -3 231 4 33 2 54 -9 70 -14 22 -14 22 23 19 53 -5 76 10 96 65 34 93 60 108 157 92 64 -11 76 -10 105 5 19 10 36 15 39 12 9 -9 -53 -35 -123 -51 -86 -20 -139 -51 -197 -115 -64 -71 -89 -129 -94 -214 -4 -60 -1 -78 19 -116 58 -112 203 -136 396 -65 40 15 59 19 48 10 -11 -8 -55 -29 -98 -45 -68 -26 -90 -30 -181 -30 -88 0 -106 -3 -120 -18 -43 -48 -6 -124 92 -189 90 -61 183 -88 301 -88 84 1 104 5 175 34 127 53 131 54 483 40 l324 -13 19 -24 c32 -41 41 -90 46 -257 8 -246 -15 -619 -53 -858 -9 -54 -13 -109 -10 -122 l6 -25 866 0 c784 0 865 1 871 16 3 9 -4 71 -15 138 -29 166 -30 178 -47 546 -21 483 -26 636 -35 1190 -10 542 -14 584 -70 795 -33 125 -72 224 -133 340 l-43 80 22 85 c79 307 50 621 -90 967 -29 72 -77 175 -107 229 -84 152 -211 336 -248 361 -47 32 -110 31 -150 -2z" fill="#FDF3DC"/>
      </g>
    </g>

    <!-- 3. DETAILED LINES AND V IN DARK ESPRESSO -->
    <g transform="translate(0, 0)">
      <g transform="translate(0,523) scale(0.1,-0.1)" stroke="none" fill="#120A02">
        <!-- Outlines & Cutouts -->
        <path d="M2951 4865 c-32 -28 -48 -68 -81 -210 -64 -269 -86 -469 -76 -713 l6 -164 -37 6 c-21 3 -59 8 -85 12 -47 6 -48 7 -92 83 -71 123 -129 193 -283 338 -156 148 -232 242 -333 408 -93 154 -147 195 -216 162 -18 -9 -41 -31 -50 -49 -39 -76 -37 -266 6 -479 38 -186 89 -308 208 -498 36 -58 61 -106 56 -108 -32 -11 -145 -86 -226 -150 -51 -41 -145 -110 -209 -153 -154 -104 -156 -106 -247 -312 -34 -75 -24 -66 -377 -333 -302 -228 -349 -282 -349 -400 0 -46 6 -72 27 -113 l27 -52 -40 -108 c-49 -128 -56 -205 -23 -268 36 -70 120 -108 143 -65 8 15 5 33 -11 73 -21 54 -22 85 -3 231 4 33 2 54 -9 70 -14 22 -14 22 23 19 53 -5 76 10 96 65 34 93 60 108 157 92 64 -11 76 -10 105 5 19 10 36 15 39 12 9 -9 -53 -35 -123 -51 -86 -20 -139 -51 -197 -115 -64 -71 -89 -129 -94 -214 -4 -60 -1 -78 19 -116 58 -112 203 -136 396 -65 40 15 59 19 48 10 -11 -8 -55 -29 -98 -45 -68 -26 -90 -30 -181 -30 -88 0 -106 -3 -120 -18 -43 -48 -6 -124 92 -189 90 -61 183 -88 301 -88 84 1 104 5 175 34 127 53 131 54 483 40 l324 -13 19 -24 c32 -41 41 -90 46 -257 8 -246 -15 -619 -53 -858 -9 -54 -13 -109 -10 -122 l6 -25 866 0 c784 0 865 1 871 16 3 9 -4 71 -15 138 -29 166 -30 178 -47 546 -21 483 -26 636 -35 1190 -10 542 -14 584 -70 795 -33 125 -72 224 -133 340 l-43 80 22 85 c79 307 50 621 -90 967 -29 72 -77 175 -107 229 -84 152 -211 336 -248 361 -47 32 -110 31 -150 -2z m99 -65 c33 -17 200 -281 270 -425 127 -259 180 -472 180 -718 0 -151 -10 -223 -46 -355 l-26 -92 25 -39 c101 -153 187 -413 216 -651 6 -47 15 -362 21 -700 6 -338 12 -640 15 -670 2 -30 7 -134 10 -230 9 -276 24 -507 40 -607 8 -51 15 -97 15 -103 0 -7 -261 -10 -781 -10 -738 0 -780 1 -775 18 11 35 35 242 47 392 7 85 12 268 13 405 1 209 -2 260 -17 313 -9 35 -17 66 -17 68 0 2 24 4 53 4 123 0 297 40 441 101 247 105 449 339 499 576 11 52 10 56 -11 73 -33 27 -59 15 -77 -39 -9 -25 -28 -75 -42 -111 -105 -276 -397 -463 -774 -498 -65 -6 -206 -7 -374 -1 -528 17 -523 17 -668 -41 -40 -16 -94 -32 -122 -35 -96 -13 -258 42 -331 113 -46 45 -33 65 35 56 102 -13 281 58 438 174 106 79 121 106 74 131 -13 8 -34 -2 -91 -41 -147 -99 -272 -149 -381 -150 -86 -1 -135 22 -167 77 -30 52 -25 129 12 203 54 106 122 159 239 186 102 24 157 59 157 102 0 40 -25 50 -79 30 -39 -14 -66 -16 -137 -10 -83 6 -91 5 -118 -17 -16 -12 -39 -47 -52 -76 -14 -30 -30 -53 -39 -53 -22 0 -75 112 -75 159 0 83 58 139 462 444 215 161 237 186 283 311 36 99 65 130 203 224 64 44 164 117 222 162 59 47 144 102 194 126 49 24 91 46 94 48 2 3 -18 36 -45 73 -145 197 -227 373 -267 568 -40 196 -46 400 -12 433 14 14 17 14 35 -2 10 -10 43 -57 72 -104 124 -205 170 -259 402 -480 113 -108 169 -180 238 -308 l49 -91 88 -6 c48 -3 120 -13 160 -22 40 -9 75 -15 78 -13 2 3 -2 31 -8 64 -8 37 -12 151 -12 309 0 272 7 336 66 580 31 132 42 164 62 177 14 10 14 10 36 -2z m-2415 -2852 c-17 -75 -14 -126 11 -185 11 -28 11 -33 -1 -33 -23 0 -56 57 -62 108 -6 50 12 123 45 187 24 45 27 10 7 -77z"/>
        
        <!-- V shape -->
        <path d="M3031 4616 c-52 -139 -81 -318 -81 -498 0 -148 12 -245 46 -383 38 -147 150 -425 173 -425 11 0 159 181 189 231 72 118 69 343 -8 579 -51 159 -258 550 -290 550 -5 0 -18 -24 -29 -54z m174 -281 c110 -226 149 -368 150 -555 0 -121 -1 -127 -32 -190 -34 -69 -124 -185 -143 -185 -24 0 -116 253 -151 413 -32 151 -37 375 -11 527 12 66 29 144 38 174 l16 55 34 -55 c19 -30 63 -112 99 -184z"/>
        
        <!-- Chest lines -->
        <path d="M1898 3029 c-10 -5 -18 -17 -18 -25 0 -19 346 -880 366 -912 14 -22 19 -22 156 -20 l141 3 183 460 c101 253 184 463 184 467 0 4 -7 14 -16 22 -20 21 -241 23 -267 4 -13 -11 -108 -242 -202 -491 -10 -26 -21 -49 -25 -52 -3 -2 -53 114 -109 258 -57 144 -110 270 -119 280 -13 14 -33 17 -136 17 -67 0 -129 -5 -138 -11z m341 -391 c138 -350 147 -371 164 -365 7 2 43 82 80 178 164 419 190 484 197 492 4 4 32 7 63 5 l55 -3 -158 -395 -158 -395 -85 -3 c-62 -2 -86 1 -90 10 -3 7 -73 182 -157 388 -84 206 -154 381 -157 388 -4 9 12 12 59 12 l64 0 123 -312z"/>
      </g>
    </g>
  </g>
</svg>
